<?xml version="1.0" encoding="utf-8"?>
<!-- Generator: Adobe Illustrator 25.4.1, SVG Export Plug-In . SVG Version: 6.00 Build 0)  -->
<svg version="1.1" id="Layer_1" xmlns="http://www.w3.org/2000/svg" xmlns:xlink="http://www.w3.org/1999/xlink" x="0px" y="0px"
	 viewBox="0 0 65.4 100" style="enable-background:new 0 0 65.4 100;" xml:space="preserve">
<g>
	<path d="M25,5.7c-1.1,0.1-1.8,1-1.8,2.1v10.5c0,0.6,0.2,1.1,0.6,1.5c0.4,0.4,0.9,0.6,1.5,0.6c0.6,0,1.1-0.2,1.5-0.6
		c0.4-0.4,0.6-0.9,0.6-1.5V7.8c0-0.6-0.2-1.2-0.7-1.6C26.2,5.8,25.6,5.7,25,5.7L25,5.7z M9.3,14.1c-0.8,0-1.5,0.6-1.8,1.3
		c-0.3,0.8-0.1,1.6,0.5,2.2l6.9,7.5c0.8,0.8,2.1,0.9,2.9,0.1c0.8-0.8,0.9-2.1,0.1-2.9l-7-7.5C10.5,14.4,9.9,14.1,9.3,14.1L9.3,14.1z
		 M40.9,14.1c-0.5,0-1,0.3-1.4,0.7l-7,7.5c-0.8,0.8-0.7,2.2,0.1,2.9c0.8,0.8,2.2,0.7,2.9-0.1l7-7.5c0.6-0.6,0.8-1.6,0.4-2.3
		C42.6,14.5,41.7,14.1,40.9,14.1L40.9,14.1z M25.8,25.9c-4,0-7.5,3.1-7.5,7.1v29c-1.1-1.2-2.3-2.6-3.3-3.6c-1-1-2.1-1.8-3.4-2.3
		c-1.3-0.5-2.8-0.6-4.3-0.1c-1.7,0.5-2.8,1.9-3.3,3.5C3.5,61,3.5,63,4.7,64.6c3.6,5.3,7.5,13.2,12.4,19.9
		c4.9,6.6,11.1,12.4,19.3,12.4h4.5c11.4,0,20.7-8.7,20.7-20.2v-22c0-3.7-2.6-7.1-6.3-7.1c-1.1,0-2.1,0.4-3,1
		c-1.1-2.2-3.2-3.9-5.8-3.9c-1.3,0-2.5,0.5-3.5,1.2c-1.3-2.2-3.7-3.7-6.4-3.7c-1.2,0-2.3,0.3-3.3,0.8V33
		C33.2,29,29.8,25.9,25.8,25.9L25.8,25.9z M25.8,30c1.9,0,3.3,1.3,3.3,2.9v25.7c0,0.6,0.2,1.1,0.6,1.5c0.4,0.4,0.9,0.6,1.5,0.6
		c0.6,0,1.1-0.2,1.5-0.6c0.4-0.4,0.6-0.9,0.6-1.5V49c0-0.1,0-0.1,0-0.2c0.2-1.4,1.5-2.6,3.3-2.6c1.9,0,3.3,1.3,3.3,2.9l0,9.9
		c0,0.6,0.2,1.1,0.6,1.5c0.4,0.4,0.9,0.6,1.5,0.6c0.6,0,1.1-0.2,1.5-0.6c0.4-0.4,0.6-0.9,0.6-1.5l0-7.7v0c0-0.1,0.1-0.2,0.1-0.3
		c0.3-1.4,1.3-2.3,2.4-2.3c1.3,0,2.5,1.2,2.5,3v7.5c0,0.6,0.2,1.1,0.6,1.5c0.4,0.4,0.9,0.6,1.5,0.6c0.6,0,1.1-0.2,1.5-0.6
		c0.4-0.4,0.6-0.9,0.6-1.5v-4.9c0-0.1,0-0.2,0.1-0.3c0.2-1.5,1.2-2.4,2.1-2.4c1,0,2.2,1.1,2.2,3v22c0,9.2-7.3,16-16.6,16h-4.5
		c-6.3,0-11.3-4.4-15.9-10.7C15.8,75.8,12,68,8.1,62.3c-0.3-0.5-0.4-1.1-0.2-1.6c0.2-0.5,0.6-0.9,0.6-0.9c0.6-0.2,1-0.1,1.6,0.1
		c0.5,0.2,1.3,0.7,2.1,1.5c1.7,1.6,3.8,4.2,6.7,7.2c0.6,0.6,1.5,0.8,2.3,0.5c0.8-0.3,1.3-1.1,1.3-1.9V33C22.4,31.4,23.8,30,25.8,30
		L25.8,30z"/>
</g>
</svg>
