<?xml version="1.0" encoding="utf-8"?>
<!-- Generator: Adobe Illustrator 25.4.1, SVG Export Plug-In . SVG Version: 6.00 Build 0)  -->
<svg version="1.1" id="Layer_1" xmlns="http://www.w3.org/2000/svg" xmlns:xlink="http://www.w3.org/1999/xlink" x="0px" y="0px"
	 viewBox="0 0 68 50" style="enable-background:new 0 0 68 50;" xml:space="preserve">
<style type="text/css">
	.st0{fill:#FFFFFF;}
</style>
<g>
	<path class="st0" d="M33.6,10.3c2.4-3.8,5.9-6.1,10.3-6.9c3.4-0.6,6.9-0.6,10.2,0.5c5.2,1.6,8.8,5,10.8,10.1
		c0.9,2.2,1.3,4.5,1.5,6.8c0.1,1.4,0.2,2.8,0.2,4.2c0,3.5-0.4,7.1-1.6,10.4c-2.4,6.6-7,10.6-13.9,11.9c-2,0.4-4,0.5-6.1,0.3
		c-0.1,0-0.1,0-0.2,0c0-0.1,0-0.2,0-0.3c0-5,0-10,0-15c0-0.3,0.1-0.4,0.3-0.5c1.5-0.4,2.9-0.9,4.4-1.4c1.4-0.5,2.4-1.4,3.1-2.7
		c1.4-2.9,0.1-7.9-4.2-8.7c-2.7-0.5-5,0.6-6.2,3.2c-1,2-1.8,4-2.7,6c-1.6,3.5-3.3,7.1-5.3,10.4c-1.6,2.6-3.7,4.7-6.4,6.2
		c-5.7,3.1-12.8,2.5-18-1.5c-2.9-2.2-4.8-5-6.3-8.3C1.8,31,1.2,26.7,1.6,22.3c0.4-4.3,1.8-8.2,4.3-11.7c2.7-3.7,6.5-5.8,10.9-6.7
		c1.3-0.3,2.6-0.3,4-0.3c0.3,0,0.3,0.1,0.3,0.4c0,5,0,10.1,0,15.1c0,0.2-0.1,0.3-0.3,0.4c-0.6,0.2-1.2,0.3-1.8,0.5
		c-2.2,0.7-3.6,2.2-3.9,4.5c-0.4,2.4,0.5,4.3,2.5,5.6c1.7,1.1,3.8,0.8,5.3-0.7c1.1-1.1,2-2.4,2.7-3.8c1.7-3.3,3.3-6.6,4.9-9.9
		C31.6,13.9,32.5,12,33.6,10.3"/>
	<path class="st0" d="M22.9,10.9c0-2.2,1.8-4,4-4.1c2.2,0,4.1,1.9,4.1,4.1c0,2.2-1.8,4-4,4C24.7,14.9,22.9,13.1,22.9,10.9z"/>
	<path class="st0" d="M39.4,36.3c2.1,0,4,1.8,4,3.9c0.1,2.2-1.7,4.2-4,4.2c-2.3,0-4.1-1.8-4.1-4C35.2,38.1,37.1,36.3,39.4,36.3z"/>
</g>
</svg>
